<svg xmlns="http://www.w3.org/2000/svg" viewBox="0 0 400 400" fill="none">
  <!-- Globe shape that morphs to square -->
  <path id="rectboundary" stroke="black" stroke-width="8" fill="none"
    d="M 350 50 C 350 50 350 350 350 350 C 350 350 50 350 50 350 C 50 350 50 50 50 50 C 50 50 350 50 350 50 Z"></path>
  <path id="circleboundary" stroke="black" stroke-width="8" fill="none"
    d="M 306.066,93.934 
           C 364.645,152.513 364.645,247.487 306.066,306.066
           C 247.487,364.645 152.513,364.645 93.934,306.066
           C 35.355,247.487 35.355,152.513 93.934,93.934
           C 152.513,35.355 247.487,35.355 306.066,93.934 Z"></path>
  <path id="equatorline" stroke="black" stroke-width="6" fill="none"
    d="M 50 200 Q 200 220 350 200"></path>
  <path id="leftmeridian" stroke="black" stroke-width="6" fill="none" d="M 200 50 Q 50 200 200 350"></path>
  <path id="rightmeridian" stroke="black" stroke-width="6" fill="none" d="M 200 50 Q 350 200 200 350"></path>
  <path id="primemeridian" stroke="black" stroke-width="6" fill="none" d="M 200 50 L 200 350"></path>
</svg>